<svg version="1.0" xmlns="http://www.w3.org/2000/svg"
 width="1080.000000pt" height="1080.000000pt" viewBox="0 0 1080.000000 1080.000000"
 preserveAspectRatio="xMidYMid meet">
<g transform="translate(0.000000,1080.000000) scale(0.100000,-0.100000)" fill="white" stroke="none">
<path d="M3134 8622 c-36 -24 -35 24 -33 -3194 2 -3035 3 -3142 21 -3160 17 -17 56 -18 888 -18 771 0 871 2 884 16 14 14 16 334 16 3174 0 2858 -1 3160 -16 3174 -14 14 -107 16 -882 16 -477 0 -872 -4 -878 -8z"/>
<path d="M5695 8617 c-20 -15 -20 -28 -22 -3169 -2 -2834 0 -3155 14 -3177 15 -24 15 -24 152 -17 477 25 835 116 1256 321 94 45 229 119 300 165 72 45 139 84 149 86 17 3 26 12 38 34 2 3 37 32 78 64 117 93 269 228 341 303 256 265 510 648 644 972 15 35 33 70 41 78 8 8 12 18 9 23 -3 4 8 46 24 92 57 163 133 449 146 548 3 25 8 56 10 70 23 127 36 551 21 680 -28 230 -69 434 -131 648 -89 308 -220 586 -414 877 -47 72 -86 141 -87 153 -1 24 -21 45 -35 37 -3 -3 -39 35 -79 83 -387 466 -887 802 -1486 995 -196 64 -363 99 -569 123 -33 3 -67 8 -75 9 -8 2 -80 6 -160 10 -121 5 -148 4 -165 -8z"/>
</g>
</svg>
